<svg id="svg" version="1.1" width="180" height="158.4" viewBox="0 0 400 158.4" xmlns="http://www.w3.org/2000/svg" xmlns:xlink="http://www.w3.org/1999/xlink" ><g id="svgg"><path id="path0" d="" stroke="none" fill="#000000" fill-rule="evenodd"></path><path id="path1" d="M86.500 16.052 C 86.500 16.081,86.744 16.325,87.042 16.594 L 87.583 17.083 87.094 16.542 C 86.638 16.037,86.500 15.923,86.500 16.052 M85.583 30.333 C 85.941 30.700,86.272 31.000,86.318 31.000 C 86.363 31.000,86.108 30.700,85.750 30.333 C 85.392 29.967,85.062 29.667,85.016 29.667 C 84.970 29.667,85.225 29.967,85.583 30.333 M105.000 49.719 C 105.000 49.748,105.244 49.991,105.542 50.260 L 106.083 50.750 105.594 50.208 C 105.138 49.703,105.000 49.590,105.000 49.719 M109.000 53.719 C 109.000 53.748,109.244 53.991,109.542 54.260 L 110.083 54.750 109.594 54.208 C 109.138 53.703,109.000 53.590,109.000 53.719 M82.575 58.042 L 81.917 58.750 82.625 58.091 C 83.284 57.478,83.410 57.333,83.284 57.333 C 83.257 57.333,82.938 57.652,82.575 58.042 M78.575 62.042 L 77.917 62.750 78.625 62.091 C 79.284 61.478,79.410 61.333,79.284 61.333 C 79.257 61.333,78.938 61.652,78.575 62.042 M63.833 83.583 C 64.144 83.904,64.436 84.167,64.482 84.167 C 64.528 84.167,64.311 83.904,64.000 83.583 C 63.689 83.262,63.397 83.000,63.351 83.000 C 63.305 83.000,63.522 83.262,63.833 83.583 M123.824 106.792 L 123.250 107.417 123.875 106.842 C 124.457 106.308,124.577 106.167,124.449 106.167 C 124.422 106.167,124.140 106.448,123.824 106.792 M49.667 113.417 C 49.978 113.737,50.270 114.000,50.315 114.000 C 50.361 114.000,50.144 113.737,49.833 113.417 C 49.522 113.096,49.230 112.833,49.185 112.833 C 49.139 112.833,49.356 113.096,49.667 113.417 M53.583 117.333 C 53.941 117.700,54.272 118.000,54.318 118.000 C 54.363 118.000,54.108 117.700,53.750 117.333 C 53.392 116.967,53.062 116.667,53.016 116.667 C 52.970 116.667,53.225 116.967,53.583 117.333 M94.409 121.208 L 93.750 121.917 94.458 121.258 C 95.117 120.645,95.243 120.500,95.117 120.500 C 95.090 120.500,94.771 120.819,94.409 121.208 M57.583 121.333 C 57.941 121.700,58.272 122.000,58.318 122.000 C 58.363 122.000,58.108 121.700,57.750 121.333 C 57.392 120.967,57.062 120.667,57.016 120.667 C 56.970 120.667,57.225 120.967,57.583 121.333 M90.409 125.208 L 89.750 125.917 90.458 125.258 C 91.117 124.645,91.243 124.500,91.117 124.500 C 91.090 124.500,90.771 124.819,90.409 125.208 M61.583 125.333 C 61.941 125.700,62.272 126.000,62.318 126.000 C 62.363 126.000,62.108 125.700,61.750 125.333 C 61.392 124.967,61.062 124.667,61.016 124.667 C 60.970 124.667,61.225 124.967,61.583 125.333 M86.410 129.208 L 85.583 130.083 86.458 129.256 C 86.940 128.801,87.333 128.408,87.333 128.381 C 87.333 128.257,87.179 128.395,86.410 129.208 " stroke="none" fill="#555555" fill-rule="evenodd"></path><path id="path2" d="M61.743 34.901 C 49.836 46.854,40.064 56.726,40.027 56.837 C 39.941 57.094,46.993 64.167,47.332 64.165 C 47.470 64.164,55.677 56.057,65.570 46.150 L 83.557 28.136 101.512 46.110 C 111.387 55.995,119.580 64.106,119.720 64.135 C 120.022 64.196,127.235 57.120,127.144 56.851 C 127.072 56.635,83.632 13.167,83.489 13.167 C 83.435 13.167,73.649 22.947,61.743 34.901 M61.146 57.810 C 48.966 69.989,39.000 80.030,39.000 80.123 C 39.000 80.299,83.228 124.544,83.496 124.636 C 83.709 124.709,128.000 80.433,128.000 80.147 C 128.000 79.847,83.821 35.667,83.521 35.667 C 83.395 35.667,73.326 45.631,61.146 57.810 M100.898 74.347 L 106.668 80.110 95.144 91.638 C 88.806 97.979,83.604 103.167,83.583 103.167 C 83.563 103.167,78.351 97.983,72.001 91.647 L 60.456 80.128 72.003 68.580 L 83.550 57.032 89.339 62.808 C 92.523 65.984,97.724 71.177,100.898 74.347 M43.597 99.614 C 41.619 101.601,40.000 103.299,40.000 103.387 C 40.000 103.474,47.294 110.859,56.208 119.797 C 80.284 143.937,83.363 147.000,83.552 147.000 C 83.739 147.000,127.167 103.546,127.167 103.359 C 127.167 103.172,119.927 96.000,119.738 96.000 C 119.641 96.000,111.461 104.133,101.560 114.074 L 83.559 132.149 65.496 114.074 C 55.562 104.133,47.380 96.000,47.314 96.000 C 47.248 96.000,45.575 97.626,43.597 99.614 " stroke="none" fill="#0b8c7b" fill-rule="evenodd"></path><path id="path3" d="" stroke="none" fill="#00ff00" fill-rule="evenodd"></path><path id="path4" d="M161.750 65.751 C 158.499 66.480,155.655 68.261,153.524 70.903 C 149.480 75.916,149.350 83.317,153.217 88.417 C 153.883 89.295,155.534 91.000,155.718 91.000 C 155.798 91.000,156.167 91.260,156.538 91.577 C 160.653 95.099,167.943 95.178,172.792 91.753 L 174.167 90.781 174.167 89.391 C 174.167 87.728,174.229 87.744,172.853 89.042 C 164.266 97.140,149.654 88.255,152.832 76.868 C 155.400 67.668,166.253 64.401,172.920 70.821 C 174.096 71.954,174.167 71.926,174.167 70.337 L 174.167 69.008 173.347 68.360 C 170.368 66.005,165.500 64.910,161.750 65.751 M195.583 65.838 C 187.575 67.838,182.637 76.538,185.225 84.085 C 189.251 95.823,204.581 97.958,211.136 87.693 C 218.094 76.795,208.076 62.716,195.583 65.838 M234.158 65.834 C 223.457 68.467,219.521 81.653,227.036 89.692 C 231.876 94.870,239.302 95.772,245.291 91.910 L 246.832 90.917 246.833 89.458 C 246.833 87.907,246.757 87.763,246.275 88.404 C 243.993 91.444,238.159 93.012,234.154 91.662 C 233.617 91.481,233.073 91.333,232.945 91.333 C 232.595 91.333,229.868 89.460,228.894 88.550 C 223.031 83.074,224.227 73.949,231.433 69.178 C 235.169 66.704,241.242 66.918,244.267 69.630 C 244.443 69.787,245.024 70.310,245.557 70.792 C 246.812 71.924,246.833 71.915,246.833 70.281 L 246.833 68.895 246.070 68.323 C 244.738 67.325,242.923 66.455,241.023 65.904 C 239.228 65.384,236.117 65.352,234.158 65.834 M268.417 65.826 C 265.159 66.687,260.333 69.819,260.333 71.073 C 260.333 71.135,260.112 71.463,259.841 71.801 C 257.028 75.314,256.556 81.803,258.799 86.118 C 260.173 88.762,261.299 90.047,263.771 91.796 C 267.536 94.460,272.424 95.061,276.750 93.393 C 278.032 92.898,279.719 91.999,280.000 91.660 C 280.046 91.605,280.514 91.245,281.041 90.859 C 286.531 86.838,287.812 76.891,283.539 71.464 C 279.742 66.641,273.767 64.414,268.417 65.826 M306.782 65.834 C 300.946 67.312,296.778 72.000,295.982 77.980 C 294.362 90.156,307.662 98.590,318.027 91.960 C 323.155 88.680,325.545 82.574,324.161 76.290 C 322.535 68.910,314.271 63.937,306.782 65.834 M336.000 79.750 L 336.000 94.000 337.000 94.000 L 338.000 94.000 338.003 82.208 L 338.006 70.417 339.177 71.667 C 339.822 72.354,341.201 73.817,342.242 74.917 C 343.283 76.017,344.346 77.179,344.604 77.500 C 344.863 77.821,345.564 78.572,346.162 79.170 C 346.760 79.768,348.412 81.521,349.833 83.066 C 351.254 84.611,353.141 86.634,354.027 87.562 C 354.913 88.491,355.851 89.514,356.111 89.837 C 356.371 90.160,357.307 91.173,358.191 92.087 C 359.076 93.002,360.001 93.994,360.248 94.292 C 360.494 94.590,360.765 94.833,360.848 94.833 C 360.938 94.833,361.000 88.946,361.000 80.333 L 361.000 65.833 360.000 65.833 L 359.000 65.833 359.000 77.773 L 359.000 89.713 357.458 88.108 C 356.610 87.224,355.767 86.324,355.583 86.106 C 355.127 85.565,351.164 81.367,349.834 80.016 C 349.238 79.412,348.540 78.654,348.284 78.333 C 348.027 78.012,346.939 76.836,345.867 75.719 C 343.064 72.800,340.158 69.715,339.302 68.750 C 338.367 67.696,336.191 65.500,336.082 65.500 C 336.037 65.500,336.000 71.912,336.000 79.750 M201.633 67.667 C 209.197 69.481,213.466 77.824,210.317 84.640 C 207.171 91.449,199.891 94.120,193.361 90.860 C 191.611 89.986,188.005 86.303,187.999 85.383 C 187.999 85.310,187.781 84.688,187.515 84.000 C 185.870 79.750,187.312 73.250,190.374 71.110 C 190.581 70.966,191.088 70.540,191.500 70.165 C 194.081 67.815,198.109 66.822,201.633 67.667 M275.183 67.887 C 283.806 70.796,286.980 81.275,281.173 87.668 C 280.716 88.171,280.340 88.629,280.337 88.684 C 280.335 88.739,279.902 89.122,279.375 89.535 C 271.212 95.933,259.483 90.171,259.503 79.774 C 259.518 71.657,267.784 65.391,275.183 67.887 M312.500 67.589 C 315.565 68.300,319.136 70.689,320.337 72.833 C 323.349 78.209,323.328 81.513,320.247 87.019 C 318.174 90.725,311.590 93.162,307.250 91.831 C 306.608 91.634,305.830 91.409,305.521 91.332 C 304.696 91.127,302.903 89.830,301.437 88.378 C 296.185 83.177,296.901 74.476,302.951 69.969 C 303.482 69.574,304.008 69.164,304.119 69.060 C 305.441 67.816,310.015 67.013,312.500 67.589 " stroke="none" fill="#e6e7e8" fill-rule="evenodd"></path></g></svg>
