<svg id="svg" version="1.1" width="400" height="400" viewBox="0 0 400 400" xmlns="http://www.w3.org/2000/svg" xmlns:xlink="http://www.w3.org/1999/xlink" ><g id="svgg"><path id="path0" d="M82.167 178.250 C 81.762 178.662,81.468 179.000,81.514 179.000 C 81.560 179.000,81.928 178.662,82.333 178.250 C 82.738 177.838,83.032 177.500,82.986 177.500 C 82.940 177.500,82.572 177.838,82.167 178.250 M78.167 182.250 C 77.762 182.662,77.468 183.000,77.514 183.000 C 77.560 183.000,77.928 182.662,78.333 182.250 C 78.738 181.838,79.032 181.500,78.986 181.500 C 78.940 181.500,78.572 181.838,78.167 182.250 M74.167 186.250 C 73.762 186.662,73.468 187.000,73.514 187.000 C 73.560 187.000,73.928 186.662,74.333 186.250 C 74.738 185.838,75.032 185.500,74.986 185.500 C 74.940 185.500,74.572 185.838,74.167 186.250 M70.167 190.250 C 69.762 190.662,69.468 191.000,69.514 191.000 C 69.560 191.000,69.928 190.662,70.333 190.250 C 70.738 189.838,71.032 189.500,70.986 189.500 C 70.940 189.500,70.572 189.838,70.167 190.250 M66.167 194.250 C 65.762 194.662,65.468 195.000,65.514 195.000 C 65.560 195.000,65.928 194.662,66.333 194.250 C 66.738 193.838,67.032 193.500,66.986 193.500 C 66.940 193.500,66.572 193.838,66.167 194.250 M62.167 198.250 C 61.762 198.662,61.468 199.000,61.514 199.000 C 61.560 199.000,61.928 198.662,62.333 198.250 C 62.738 197.838,63.032 197.500,62.986 197.500 C 62.940 197.500,62.572 197.838,62.167 198.250 " stroke="none" fill="#000000" fill-rule="evenodd"></path><path id="path1" d="" stroke="none" fill="#b6b6b6" fill-rule="evenodd"></path><path id="path2" d="M61.746 154.739 C 49.831 166.696,40.062 176.583,40.035 176.709 C 39.973 177.008,46.953 184.000,47.313 184.000 C 47.464 184.000,55.681 175.904,65.572 166.009 L 83.557 148.017 101.491 166.009 C 112.455 177.008,119.545 184.000,119.735 184.000 C 120.053 184.000,127.167 177.060,127.167 176.750 C 127.167 176.583,83.662 133.000,83.495 133.000 C 83.447 133.000,73.660 142.783,61.746 154.739 M61.165 177.669 C 48.974 189.862,39.000 199.915,39.000 200.009 C 39.000 200.264,83.269 244.500,83.524 244.500 C 83.830 244.500,127.999 200.305,127.997 200.000 C 127.996 199.704,83.826 155.500,83.531 155.500 C 83.420 155.500,73.355 165.476,61.165 177.669 M95.113 211.549 L 83.583 223.093 72.024 211.544 L 60.464 199.994 72.013 188.447 L 83.561 176.901 95.102 188.453 L 106.644 200.005 95.113 211.549 M43.540 219.543 C 41.593 221.492,40.000 223.167,40.000 223.267 C 40.000 223.454,83.305 267.000,83.492 267.000 C 83.667 267.000,127.080 223.517,127.129 223.292 C 127.194 222.991,120.112 216.000,119.741 216.000 C 119.557 216.000,112.295 223.160,101.496 233.991 L 83.556 251.981 65.572 233.991 C 55.680 224.096,47.474 216.000,47.334 216.000 C 47.195 216.000,45.487 217.594,43.540 219.543 " stroke="none" fill="#0b8c7b" fill-rule="evenodd"></path><path id="path3" d="" stroke="none" fill="#00ff00" fill-rule="evenodd"></path><path id="path4" d="M162.014 185.506 C 154.438 187.082,149.162 194.771,150.565 202.190 C 152.435 212.078,163.651 217.260,172.083 212.131 C 174.171 210.862,174.161 210.875,174.164 209.292 C 174.167 207.796,174.093 207.752,173.125 208.679 C 169.342 212.301,164.179 213.164,159.769 210.909 C 151.908 206.891,150.042 198.336,155.576 191.681 C 159.944 186.428,167.974 185.893,172.744 190.536 C 174.193 191.946,174.167 191.951,174.167 190.279 C 174.167 188.923,173.845 188.167,173.269 188.167 C 173.200 188.167,172.792 187.923,172.363 187.626 C 169.585 185.701,165.297 184.823,162.014 185.506 M196.250 185.510 C 192.133 186.516,189.718 188.164,186.982 191.833 C 182.121 198.351,184.913 208.808,192.512 212.541 C 205.123 218.738,217.871 205.928,211.845 193.114 C 209.346 187.800,201.845 184.143,196.250 185.510 M234.846 185.507 C 224.842 187.571,219.855 199.264,225.445 207.546 C 226.248 208.735,228.836 211.500,229.146 211.500 C 229.236 211.500,229.409 211.595,229.530 211.711 C 229.901 212.066,233.023 213.457,234.083 213.739 C 237.404 214.622,241.096 214.115,244.443 212.315 C 246.817 211.038,246.833 211.018,246.833 209.392 C 246.833 207.727,246.959 207.754,245.374 209.082 C 241.552 212.286,237.009 213.051,232.926 211.178 C 228.412 209.107,225.426 204.966,225.210 200.476 C 225.129 198.782,225.448 196.425,225.827 195.917 C 225.896 195.825,226.035 195.502,226.137 195.198 C 228.724 187.512,239.375 184.844,245.284 190.402 C 246.905 191.926,246.835 191.934,246.824 190.222 L 246.814 188.750 245.115 187.635 C 242.103 185.659,238.115 184.833,234.846 185.507 M268.416 185.658 C 264.950 186.567,261.319 189.014,260.182 191.208 C 260.052 191.457,259.802 191.817,259.625 192.007 C 256.605 195.248,256.760 204.313,259.896 207.833 C 260.101 208.063,260.485 208.576,260.750 208.974 C 262.501 211.597,266.956 213.865,270.846 214.112 C 281.085 214.762,288.729 204.689,285.360 194.985 C 282.970 188.103,275.265 183.861,268.416 185.658 M307.833 185.451 C 296.691 187.387,291.942 201.023,299.535 209.280 C 302.655 212.673,305.795 214.078,310.250 214.072 C 319.806 214.059,326.333 205.477,324.105 195.854 C 322.548 189.132,314.877 184.227,307.833 185.451 M336.000 199.571 L 336.000 213.850 336.958 213.800 L 337.917 213.750 337.959 202.010 L 338.002 190.271 339.043 191.344 C 339.615 191.934,340.333 192.717,340.639 193.083 C 340.945 193.450,341.957 194.543,342.889 195.512 C 343.821 196.481,345.596 198.388,346.833 199.749 C 348.071 201.110,349.573 202.718,350.172 203.320 C 350.771 203.923,351.783 205.017,352.420 205.750 C 353.057 206.483,354.199 207.684,354.956 208.418 C 355.714 209.153,356.333 209.821,356.333 209.904 C 356.333 209.987,357.175 210.907,358.205 211.948 C 359.234 212.989,360.189 214.027,360.327 214.254 C 360.998 215.360,361.000 215.314,361.000 200.167 L 361.000 185.667 360.000 185.667 L 359.000 185.667 359.000 197.621 L 359.000 209.575 357.458 207.968 C 355.625 206.058,353.983 204.317,352.617 202.833 C 350.754 200.810,348.090 197.985,346.021 195.837 C 344.887 194.660,343.837 193.514,343.688 193.292 C 343.539 193.069,342.967 192.443,342.417 191.901 C 341.608 191.104,338.595 187.938,336.911 186.117 C 335.920 185.044,336.000 183.867,336.000 199.571 M201.343 187.574 C 208.970 189.034,213.553 197.575,210.404 204.461 C 207.279 211.292,199.544 214.154,193.417 210.747 C 191.292 209.565,188.000 206.209,188.000 205.224 C 188.000 205.143,187.781 204.553,187.512 203.914 C 184.912 197.708,189.043 189.491,195.583 187.857 C 197.949 187.266,199.369 187.197,201.343 187.574 M274.167 187.595 C 274.762 187.735,275.467 187.893,275.733 187.947 C 276.749 188.153,279.794 190.125,280.439 190.995 C 280.543 191.135,280.941 191.588,281.324 192.000 C 288.052 199.246,281.919 212.162,271.750 212.162 C 264.028 212.162,258.115 204.753,259.740 197.116 C 261.131 190.582,267.891 186.121,274.167 187.595 M312.528 187.567 C 314.152 187.878,315.576 188.391,316.256 188.910 C 316.561 189.143,316.854 189.333,316.907 189.333 C 317.026 189.333,317.784 189.979,319.028 191.142 C 322.751 194.622,323.643 201.888,320.830 205.838 C 320.649 206.093,320.500 206.384,320.500 206.484 C 320.500 206.584,320.425 206.667,320.333 206.667 C 320.242 206.667,320.167 206.786,320.167 206.932 C 320.167 207.078,319.677 207.670,319.080 208.248 C 313.735 213.411,307.407 213.570,301.883 208.682 C 300.440 207.404,300.209 207.087,299.057 204.787 C 296.510 199.705,298.400 192.831,303.250 189.536 C 303.617 189.287,303.997 189.008,304.096 188.917 C 304.194 188.825,304.644 188.590,305.096 188.395 C 307.350 187.421,310.138 187.110,312.528 187.567 " stroke="none" fill="#e6e7e8" fill-rule="evenodd"></path></g></svg>