<?xml version="1.0" encoding="utf-8"?>
<!-- Generator: Adobe Illustrator 16.0.0, SVG Export Plug-In . SVG Version: 6.00 Build 0)  -->
<!DOCTYPE svg PUBLIC "-//W3C//DTD SVG 1.1//EN" "http://www.w3.org/Graphics/SVG/1.1/DTD/svg11.dtd">
<svg version="1.1" id="VERTICAL" xmlns="http://www.w3.org/2000/svg" xmlns:xlink="http://www.w3.org/1999/xlink" x="0px" y="0px"
	 width="89.4px" height="133.534px" viewBox="0 0.25 89.4 133.534" enable-background="new 0 0.25 89.4 133.534"
	 xml:space="preserve">
<g id="Vertical_x5F_Logo_x5F_Light_Text">
	<g id="TWO_COLORED_7_">
		<g>
			<g>
				<polygon fill="#0A8271" points="68.334,67.05 45,90.383 45,111.45 89.4,67.05 45,22.583 45,43.65 				"/>
				<polygon fill="#0B8C7B" points="21.667,67.05 45,43.65 45,22.583 0.6,67.05 45,111.45 45,90.383 				"/>
			</g>
		</g>
		<g>
			<polygon fill="#0B8C7B" points="45,0.25 1.533,43.784 8.8,50.983 45,14.717 			"/>
			<polygon fill="#0A8271" points="45,0.25 88.467,43.784 81.2,50.983 45,14.717 			"/>
		</g>
		<g>
			<polygon fill="#0B8C7B" points="45,133.784 1.533,90.25 8.8,83.05 45,119.317 			"/>
			<polygon fill="#0A8271" points="45,133.784 88.467,90.25 81.2,83.05 45,119.317 			"/>
		</g>
	</g>
	<g display="none">
		<path display="inline" fill="#E6E7E8" d="M-36.733,168.45c-1.066-1.333-2.4-2.333-4.133-3.199c-1.733-0.801-3.4-1.2-5.133-1.2
			c-1.667,0-3.267,0.333-4.8,1c-1.534,0.667-2.867,1.6-4,2.8s-2.067,2.6-2.733,4.133c-0.667,1.533-1,3.134-1,4.801
			c0,1.6,0.333,3.133,1,4.6c0.667,1.467,1.533,2.801,2.733,3.934c1.2,1.133,2.533,2.066,4.133,2.8
			c1.533,0.733,3.133,1.067,4.733,1.067c0.8,0,1.667-0.134,2.466-0.334c0.867-0.2,1.733-0.533,2.534-0.867
			c0.867-0.399,1.6-0.799,2.333-1.333c0.733-0.533,1.333-1.066,1.8-1.667v2.467c-1.333,1.134-2.733,1.933-4.333,2.533
			c-1.533,0.602-3.2,0.934-4.867,0.934c-1.867,0-3.667-0.4-5.4-1.133c-1.733-0.733-3.267-1.8-4.6-3.066
			c-1.333-1.334-2.4-2.867-3.133-4.601s-1.133-3.533-1.133-5.467c0-1.933,0.4-3.8,1.133-5.533s1.8-3.267,3.133-4.601
			c1.333-1.332,2.867-2.332,4.6-3.066c1.733-0.732,3.6-1.133,5.467-1.133c1.667,0,3.267,0.333,4.866,0.934
			c1.6,0.666,3,1.533,4.2,2.666v2.533H-36.733z"/>
		<path display="inline" fill="#E6E7E8" d="M-6.2,163.45c1.733,0.734,3.267,1.801,4.6,3.066c1.333,1.334,2.333,2.867,3.133,4.601
			c0.733,1.733,1.133,3.533,1.133,5.467c0,1.933-0.4,3.733-1.133,5.467s-1.8,3.267-3.133,4.6s-2.867,2.333-4.6,3.067
			c-1.733,0.732-3.533,1.133-5.466,1.133c-1.934,0-3.733-0.4-5.467-1.133c-1.733-0.734-3.267-1.8-4.6-3.067
			c-1.333-1.333-2.333-2.866-3.133-4.6C-25.6,180.317-26,178.516-26,176.583c0-1.934,0.4-3.733,1.133-5.467s1.8-3.267,3.133-4.601
			c1.333-1.332,2.867-2.332,4.6-3.066c1.733-0.732,3.533-1.133,5.467-1.133C-9.733,162.317-7.933,162.717-6.2,163.45z
			 M-16.467,164.983c-1.533,0.667-2.867,1.601-4,2.734c-1.133,1.199-2.066,2.533-2.733,4.066c-0.667,1.533-1,3.133-1,4.8
			s0.333,3.333,1,4.8c0.667,1.533,1.534,2.867,2.733,4.066c1.133,1.2,2.467,2.066,4,2.734c1.534,0.666,3.133,1,4.8,1
			c1.667,0,3.267-0.334,4.8-1c1.533-0.668,2.867-1.601,4-2.734c1.133-1.199,2.067-2.533,2.733-4.066s1-3.133,1-4.8
			s-0.333-3.267-1-4.8s-1.533-2.867-2.733-4.066c-1.2-1.201-2.533-2.067-4-2.734c-1.533-0.666-3.133-1-4.8-1
			C-13.333,163.983-14.933,164.383-16.467,164.983z"/>
		<path display="inline" fill="#E6E7E8" d="M36,168.45c-1.066-1.333-2.4-2.333-4.133-3.199c-1.733-0.801-3.4-1.2-5.133-1.2
			c-1.667,0-3.267,0.333-4.8,1c-1.533,0.667-2.867,1.6-4,2.8s-2.066,2.6-2.733,4.133c-0.667,1.533-1,3.134-1,4.801
			c0,1.6,0.333,3.133,1,4.6c0.667,1.467,1.533,2.801,2.733,3.934c1.2,1.133,2.534,2.066,4.133,2.8
			c1.534,0.733,3.134,1.067,4.733,1.067c0.8,0,1.667-0.134,2.467-0.334c0.867-0.2,1.733-0.533,2.533-0.867
			c0.867-0.399,1.6-0.799,2.333-1.333c0.733-0.533,1.333-1.066,1.8-1.667v2.467c-1.333,1.134-2.733,1.933-4.333,2.533
			c-1.533,0.602-3.2,0.934-4.867,0.934c-1.867,0-3.667-0.4-5.4-1.133c-1.733-0.733-3.267-1.8-4.6-3.066
			c-1.333-1.334-2.4-2.867-3.133-4.601s-1.133-3.533-1.133-5.467c0-1.933,0.4-3.8,1.133-5.533s1.8-3.267,3.133-4.601
			c1.333-1.332,2.867-2.332,4.6-3.066c1.733-0.732,3.6-1.133,5.466-1.133c1.667,0,3.267,0.333,4.867,0.934
			c1.6,0.666,3,1.533,4.2,2.666v2.533H36z"/>
		<path display="inline" fill="#E6E7E8" d="M66.533,163.45c1.733,0.734,3.267,1.801,4.6,3.066c1.334,1.334,2.334,2.867,3.134,4.601
			C75,172.85,75.4,174.65,75.4,176.583c0,1.933-0.4,3.733-1.134,5.467s-1.8,3.267-3.134,4.6c-1.333,1.333-2.866,2.333-4.6,3.067
			c-1.733,0.732-3.533,1.133-5.467,1.133s-3.732-0.4-5.467-1.133c-1.732-0.734-3.266-1.8-4.6-3.067
			c-1.334-1.333-2.334-2.866-3.133-4.6c-0.734-1.733-1.134-3.534-1.134-5.467c0-1.934,0.399-3.733,1.134-5.467
			c0.732-1.733,1.799-3.267,3.133-4.601c1.334-1.332,2.867-2.332,4.6-3.066c1.734-0.732,3.533-1.133,5.467-1.133
			S64.8,162.717,66.533,163.45z M56.267,164.983c-1.533,0.667-2.866,1.601-4,2.734c-1.134,1.199-2.066,2.533-2.733,4.066
			c-0.666,1.533-1,3.133-1,4.8s0.334,3.333,1,4.8c0.667,1.533,1.533,2.867,2.733,4.066c1.134,1.2,2.467,2.066,4,2.734
			c1.533,0.666,3.134,1,4.8,1c1.667,0,3.268-0.334,4.801-1c1.533-0.668,2.866-1.601,4-2.734c1.133-1.199,2.066-2.533,2.732-4.066
			c0.667-1.533,1-3.133,1-4.8s-0.333-3.267-1-4.8c-0.666-1.533-1.533-2.867-2.732-4.066c-1.201-1.201-2.533-2.067-4-2.734
			c-1.533-0.666-3.134-1-4.801-1C59.4,163.983,57.8,164.383,56.267,164.983z"/>
		<path display="inline" fill="#E6E7E8" d="M105,163.45c1.733,0.734,3.267,1.801,4.6,3.066c1.334,1.334,2.334,2.867,3.134,4.601
			c0.733,1.733,1.134,3.533,1.134,5.467c0,1.933-0.4,3.733-1.134,5.467s-1.8,3.267-3.134,4.6c-1.333,1.333-2.866,2.333-4.6,3.067
			c-1.733,0.732-3.533,1.133-5.467,1.133s-3.733-0.4-5.467-1.133c-1.733-0.734-3.267-1.8-4.6-3.067
			c-1.333-1.333-2.333-2.866-3.134-4.6c-0.733-1.733-1.133-3.534-1.133-5.467c0-1.934,0.399-3.733,1.133-5.467
			s1.801-3.267,3.134-4.601c1.333-1.332,2.866-2.332,4.6-3.066c1.733-0.732,3.533-1.133,5.467-1.133S103.2,162.717,105,163.45z
			 M94.733,164.983c-1.533,0.667-2.866,1.601-4,2.734c-1.134,1.199-2.066,2.533-2.733,4.066s-1,3.133-1,4.8s0.333,3.333,1,4.8
			c0.667,1.533,1.533,2.867,2.733,4.066c1.134,1.2,2.467,2.066,4,2.734c1.533,0.666,3.134,1,4.8,1c1.667,0,3.267-0.334,4.8-1
			c1.534-0.668,2.867-1.601,4-2.734c1.134-1.199,2.067-2.533,2.733-4.066c0.667-1.533,1-3.133,1-4.8s-0.333-3.267-1-4.8
			c-0.666-1.533-1.533-2.867-2.733-4.066c-1.199-1.201-2.533-2.067-4-2.734c-1.533-0.666-3.133-1-4.8-1
			C97.867,163.983,96.267,164.383,94.733,164.983z"/>
		<path display="inline" fill="#E6E7E8" d="M150.2,191.449l-23.066-24.799v23.934H125.4v-28.201l23.066,24.667v-24.267h1.733
			V191.449z"/>
	</g>
</g>
</svg>
